<mxfile host="65bd71144e">
    <diagram name="Page-1" id="15o1FJSA1Ez9O_D2nYYF">
        <mxGraphModel dx="529" dy="466" grid="1" gridSize="10" guides="1" tooltips="1" connect="1" arrows="1" fold="1" page="1" pageScale="1" pageWidth="850" pageHeight="1100" math="0" shadow="0">
            <root>
                <mxCell id="0"/>
                <mxCell id="1" parent="0"/>
                <mxCell id="_ZwvrWTYbWZkt-ZXVWBP-1" value="" style="endArrow=classic;html=1;rounded=0;" parent="1" edge="1">
                    <mxGeometry width="50" height="50" relative="1" as="geometry">
                        <mxPoint x="120" y="440" as="sourcePoint"/>
                        <mxPoint x="120" y="40" as="targetPoint"/>
                    </mxGeometry>
                </mxCell>
                <mxCell id="_ZwvrWTYbWZkt-ZXVWBP-2" value="" style="endArrow=classic;html=1;rounded=0;" parent="1" edge="1">
                    <mxGeometry width="50" height="50" relative="1" as="geometry">
                        <mxPoint x="120" y="440" as="sourcePoint"/>
                        <mxPoint x="360" y="440" as="targetPoint"/>
                    </mxGeometry>
                </mxCell>
                <mxCell id="_ZwvrWTYbWZkt-ZXVWBP-4" value="1" style="text;html=1;align=center;verticalAlign=middle;whiteSpace=wrap;rounded=0;" parent="1" vertex="1">
                    <mxGeometry x="130" y="440" width="60" height="30" as="geometry"/>
                </mxCell>
                <mxCell id="_ZwvrWTYbWZkt-ZXVWBP-5" value="2" style="text;html=1;align=center;verticalAlign=middle;whiteSpace=wrap;rounded=0;" parent="1" vertex="1">
                    <mxGeometry x="170" y="440" width="60" height="30" as="geometry"/>
                </mxCell>
                <mxCell id="_ZwvrWTYbWZkt-ZXVWBP-6" value="4" style="text;html=1;align=center;verticalAlign=middle;whiteSpace=wrap;rounded=0;" parent="1" vertex="1">
                    <mxGeometry x="250" y="440" width="60" height="30" as="geometry"/>
                </mxCell>
                <mxCell id="_ZwvrWTYbWZkt-ZXVWBP-7" value="3" style="text;html=1;align=center;verticalAlign=middle;whiteSpace=wrap;rounded=0;" parent="1" vertex="1">
                    <mxGeometry x="210" y="440" width="60" height="30" as="geometry"/>
                </mxCell>
                <mxCell id="_ZwvrWTYbWZkt-ZXVWBP-8" value="5" style="text;html=1;align=center;verticalAlign=middle;whiteSpace=wrap;rounded=0;" parent="1" vertex="1">
                    <mxGeometry x="290" y="440" width="60" height="30" as="geometry"/>
                </mxCell>
                <mxCell id="_ZwvrWTYbWZkt-ZXVWBP-11" value="1" style="text;html=1;align=center;verticalAlign=middle;whiteSpace=wrap;rounded=0;" parent="1" vertex="1">
                    <mxGeometry x="70" y="385" width="60" height="30" as="geometry"/>
                </mxCell>
                <mxCell id="_ZwvrWTYbWZkt-ZXVWBP-18" value="2" style="text;html=1;align=center;verticalAlign=middle;whiteSpace=wrap;rounded=0;" parent="1" vertex="1">
                    <mxGeometry x="70" y="345" width="60" height="30" as="geometry"/>
                </mxCell>
                <mxCell id="_ZwvrWTYbWZkt-ZXVWBP-19" value="3" style="text;html=1;align=center;verticalAlign=middle;whiteSpace=wrap;rounded=0;" parent="1" vertex="1">
                    <mxGeometry x="70" y="305" width="60" height="30" as="geometry"/>
                </mxCell>
                <mxCell id="_ZwvrWTYbWZkt-ZXVWBP-20" value="4" style="text;html=1;align=center;verticalAlign=middle;whiteSpace=wrap;rounded=0;" parent="1" vertex="1">
                    <mxGeometry x="70" y="265" width="60" height="30" as="geometry"/>
                </mxCell>
                <mxCell id="_ZwvrWTYbWZkt-ZXVWBP-21" value="5" style="text;html=1;align=center;verticalAlign=middle;whiteSpace=wrap;rounded=0;" parent="1" vertex="1">
                    <mxGeometry x="70" y="225" width="60" height="30" as="geometry"/>
                </mxCell>
                <mxCell id="_ZwvrWTYbWZkt-ZXVWBP-22" value="6" style="text;html=1;align=center;verticalAlign=middle;whiteSpace=wrap;rounded=0;" parent="1" vertex="1">
                    <mxGeometry x="70" y="185" width="60" height="30" as="geometry"/>
                </mxCell>
                <mxCell id="_ZwvrWTYbWZkt-ZXVWBP-23" value="7" style="text;html=1;align=center;verticalAlign=middle;whiteSpace=wrap;rounded=0;" parent="1" vertex="1">
                    <mxGeometry x="70" y="145" width="60" height="30" as="geometry"/>
                </mxCell>
                <mxCell id="_ZwvrWTYbWZkt-ZXVWBP-24" value="8" style="text;html=1;align=center;verticalAlign=middle;whiteSpace=wrap;rounded=0;" parent="1" vertex="1">
                    <mxGeometry x="70" y="105" width="60" height="30" as="geometry"/>
                </mxCell>
                <mxCell id="_ZwvrWTYbWZkt-ZXVWBP-25" value="2" style="rounded=0;whiteSpace=wrap;html=1;fillStyle=auto;fillColor=#e51400;strokeColor=#B20000;fontColor=#ffffff;" parent="1" vertex="1">
                    <mxGeometry x="200" y="80" width="40" height="320" as="geometry"/>
                </mxCell>
                <mxCell id="_ZwvrWTYbWZkt-ZXVWBP-27" value="" style="endArrow=classic;html=1;rounded=0;" parent="1" edge="1">
                    <mxGeometry width="50" height="50" relative="1" as="geometry">
                        <mxPoint x="475" y="440" as="sourcePoint"/>
                        <mxPoint x="475" y="40" as="targetPoint"/>
                    </mxGeometry>
                </mxCell>
                <mxCell id="_ZwvrWTYbWZkt-ZXVWBP-28" value="" style="endArrow=classic;html=1;rounded=0;exitX=0;exitY=1;exitDx=0;exitDy=0;" parent="1" source="_ZwvrWTYbWZkt-ZXVWBP-45" edge="1">
                    <mxGeometry width="50" height="50" relative="1" as="geometry">
                        <mxPoint x="455" y="440" as="sourcePoint"/>
                        <mxPoint x="715" y="440" as="targetPoint"/>
                    </mxGeometry>
                </mxCell>
                <mxCell id="_ZwvrWTYbWZkt-ZXVWBP-29" value="1" style="text;html=1;align=center;verticalAlign=middle;whiteSpace=wrap;rounded=0;" parent="1" vertex="1">
                    <mxGeometry x="485" y="440" width="60" height="30" as="geometry"/>
                </mxCell>
                <mxCell id="_ZwvrWTYbWZkt-ZXVWBP-30" value="2" style="text;html=1;align=center;verticalAlign=middle;whiteSpace=wrap;rounded=0;" parent="1" vertex="1">
                    <mxGeometry x="525" y="440" width="60" height="30" as="geometry"/>
                </mxCell>
                <mxCell id="_ZwvrWTYbWZkt-ZXVWBP-31" value="4" style="text;html=1;align=center;verticalAlign=middle;whiteSpace=wrap;rounded=0;" parent="1" vertex="1">
                    <mxGeometry x="605" y="440" width="60" height="30" as="geometry"/>
                </mxCell>
                <mxCell id="_ZwvrWTYbWZkt-ZXVWBP-32" value="3" style="text;html=1;align=center;verticalAlign=middle;whiteSpace=wrap;rounded=0;" parent="1" vertex="1">
                    <mxGeometry x="565" y="440" width="60" height="30" as="geometry"/>
                </mxCell>
                <mxCell id="_ZwvrWTYbWZkt-ZXVWBP-33" value="5" style="text;html=1;align=center;verticalAlign=middle;whiteSpace=wrap;rounded=0;" parent="1" vertex="1">
                    <mxGeometry x="645" y="440" width="60" height="30" as="geometry"/>
                </mxCell>
                <mxCell id="_ZwvrWTYbWZkt-ZXVWBP-43" value="5" style="rounded=0;whiteSpace=wrap;html=1;fillStyle=auto;fillColor=#e51400;strokeColor=#B20000;fontColor=#ffffff;" parent="1" vertex="1">
                    <mxGeometry x="475" y="80" width="200" height="40" as="geometry"/>
                </mxCell>
                <mxCell id="_ZwvrWTYbWZkt-ZXVWBP-44" value="3" style="rounded=0;whiteSpace=wrap;html=1;fillStyle=auto;fillColor=#e51400;strokeColor=#B20000;fontColor=#ffffff;" parent="1" vertex="1">
                    <mxGeometry x="475" y="240" width="200" height="40" as="geometry"/>
                </mxCell>
                <mxCell id="_ZwvrWTYbWZkt-ZXVWBP-45" value="1" style="rounded=0;whiteSpace=wrap;html=1;fillStyle=auto;fillColor=#e51400;strokeColor=#B20000;fontColor=#ffffff;" parent="1" vertex="1">
                    <mxGeometry x="475" y="400" width="200" height="40" as="geometry"/>
                </mxCell>
                <mxCell id="_ZwvrWTYbWZkt-ZXVWBP-48" value="9" style="text;html=1;align=center;verticalAlign=middle;whiteSpace=wrap;rounded=0;" parent="1" vertex="1">
                    <mxGeometry x="70" y="65" width="60" height="30" as="geometry"/>
                </mxCell>
                <mxCell id="_ZwvrWTYbWZkt-ZXVWBP-50" value="4" style="rounded=0;whiteSpace=wrap;html=1;fillStyle=auto;fillColor=#e51400;strokeColor=#B20000;fontColor=#ffffff;" parent="1" vertex="1">
                    <mxGeometry x="635" y="120" width="40" height="120" as="geometry"/>
                </mxCell>
                <mxCell id="_ZwvrWTYbWZkt-ZXVWBP-51" value="2" style="rounded=0;whiteSpace=wrap;html=1;fillStyle=auto;fillColor=#e51400;strokeColor=#B20000;fontColor=#ffffff;" parent="1" vertex="1">
                    <mxGeometry x="475" y="280" width="40" height="120" as="geometry"/>
                </mxCell>
                <mxCell id="_ZwvrWTYbWZkt-ZXVWBP-54" value="&lt;h1 style=&quot;margin-top: 0px;&quot;&gt;2&lt;/h1&gt;&lt;p&gt;x,y,5,1&lt;br&gt;x,y+1,1,3&lt;br&gt;x,y+4,5,1&lt;br&gt;x+4,y+5,1,3&lt;br&gt;x,y+8,5,1&lt;/p&gt;" style="text;html=1;whiteSpace=wrap;overflow=hidden;rounded=0;" parent="1" vertex="1">
                    <mxGeometry x="475" y="480" width="180" height="120" as="geometry"/>
                </mxCell>
                <mxCell id="_ZwvrWTYbWZkt-ZXVWBP-56" value="1" style="text;html=1;align=center;verticalAlign=middle;whiteSpace=wrap;rounded=0;" parent="1" vertex="1">
                    <mxGeometry x="425" y="385" width="60" height="30" as="geometry"/>
                </mxCell>
                <mxCell id="_ZwvrWTYbWZkt-ZXVWBP-57" value="2" style="text;html=1;align=center;verticalAlign=middle;whiteSpace=wrap;rounded=0;" parent="1" vertex="1">
                    <mxGeometry x="425" y="345" width="60" height="30" as="geometry"/>
                </mxCell>
                <mxCell id="_ZwvrWTYbWZkt-ZXVWBP-58" value="3" style="text;html=1;align=center;verticalAlign=middle;whiteSpace=wrap;rounded=0;" parent="1" vertex="1">
                    <mxGeometry x="425" y="305" width="60" height="30" as="geometry"/>
                </mxCell>
                <mxCell id="_ZwvrWTYbWZkt-ZXVWBP-59" value="4" style="text;html=1;align=center;verticalAlign=middle;whiteSpace=wrap;rounded=0;" parent="1" vertex="1">
                    <mxGeometry x="425" y="265" width="60" height="30" as="geometry"/>
                </mxCell>
                <mxCell id="_ZwvrWTYbWZkt-ZXVWBP-60" value="5" style="text;html=1;align=center;verticalAlign=middle;whiteSpace=wrap;rounded=0;" parent="1" vertex="1">
                    <mxGeometry x="425" y="225" width="60" height="30" as="geometry"/>
                </mxCell>
                <mxCell id="_ZwvrWTYbWZkt-ZXVWBP-61" value="6" style="text;html=1;align=center;verticalAlign=middle;whiteSpace=wrap;rounded=0;" parent="1" vertex="1">
                    <mxGeometry x="425" y="185" width="60" height="30" as="geometry"/>
                </mxCell>
                <mxCell id="_ZwvrWTYbWZkt-ZXVWBP-62" value="7" style="text;html=1;align=center;verticalAlign=middle;whiteSpace=wrap;rounded=0;" parent="1" vertex="1">
                    <mxGeometry x="425" y="145" width="60" height="30" as="geometry"/>
                </mxCell>
                <mxCell id="_ZwvrWTYbWZkt-ZXVWBP-63" value="8" style="text;html=1;align=center;verticalAlign=middle;whiteSpace=wrap;rounded=0;" parent="1" vertex="1">
                    <mxGeometry x="425" y="105" width="60" height="30" as="geometry"/>
                </mxCell>
                <mxCell id="_ZwvrWTYbWZkt-ZXVWBP-64" value="9" style="text;html=1;align=center;verticalAlign=middle;whiteSpace=wrap;rounded=0;" parent="1" vertex="1">
                    <mxGeometry x="425" y="65" width="60" height="30" as="geometry"/>
                </mxCell>
                <mxCell id="_ZwvrWTYbWZkt-ZXVWBP-81" value="" style="endArrow=classic;html=1;rounded=0;" parent="1" edge="1">
                    <mxGeometry width="50" height="50" relative="1" as="geometry">
                        <mxPoint x="480" y="1080" as="sourcePoint"/>
                        <mxPoint x="480" y="680" as="targetPoint"/>
                    </mxGeometry>
                </mxCell>
                <mxCell id="_ZwvrWTYbWZkt-ZXVWBP-82" value="" style="endArrow=classic;html=1;rounded=0;exitX=0;exitY=1;exitDx=0;exitDy=0;" parent="1" edge="1">
                    <mxGeometry width="50" height="50" relative="1" as="geometry">
                        <mxPoint x="480" y="1080" as="sourcePoint"/>
                        <mxPoint x="720" y="1080" as="targetPoint"/>
                    </mxGeometry>
                </mxCell>
                <mxCell id="_ZwvrWTYbWZkt-ZXVWBP-83" value="1" style="text;html=1;align=center;verticalAlign=middle;whiteSpace=wrap;rounded=0;" parent="1" vertex="1">
                    <mxGeometry x="490" y="1080" width="60" height="30" as="geometry"/>
                </mxCell>
                <mxCell id="_ZwvrWTYbWZkt-ZXVWBP-84" value="2" style="text;html=1;align=center;verticalAlign=middle;whiteSpace=wrap;rounded=0;" parent="1" vertex="1">
                    <mxGeometry x="530" y="1080" width="60" height="30" as="geometry"/>
                </mxCell>
                <mxCell id="_ZwvrWTYbWZkt-ZXVWBP-85" value="4" style="text;html=1;align=center;verticalAlign=middle;whiteSpace=wrap;rounded=0;" parent="1" vertex="1">
                    <mxGeometry x="610" y="1080" width="60" height="30" as="geometry"/>
                </mxCell>
                <mxCell id="_ZwvrWTYbWZkt-ZXVWBP-86" value="3" style="text;html=1;align=center;verticalAlign=middle;whiteSpace=wrap;rounded=0;" parent="1" vertex="1">
                    <mxGeometry x="570" y="1080" width="60" height="30" as="geometry"/>
                </mxCell>
                <mxCell id="_ZwvrWTYbWZkt-ZXVWBP-87" value="5" style="text;html=1;align=center;verticalAlign=middle;whiteSpace=wrap;rounded=0;" parent="1" vertex="1">
                    <mxGeometry x="650" y="1080" width="60" height="30" as="geometry"/>
                </mxCell>
                <mxCell id="_ZwvrWTYbWZkt-ZXVWBP-95" value="&lt;h1 style=&quot;margin-top: 0px;&quot;&gt;4&lt;/h1&gt;&lt;p&gt;x+4,y,1,9&lt;br&gt;x,y+4,4,1&lt;br&gt;x,y+5,1,4&lt;br&gt;&lt;/p&gt;" style="text;html=1;whiteSpace=wrap;overflow=hidden;rounded=0;" parent="1" vertex="1">
                    <mxGeometry x="480" y="1120" width="180" height="120" as="geometry"/>
                </mxCell>
                <mxCell id="_ZwvrWTYbWZkt-ZXVWBP-96" value="1" style="text;html=1;align=center;verticalAlign=middle;whiteSpace=wrap;rounded=0;" parent="1" vertex="1">
                    <mxGeometry x="430" y="1025" width="60" height="30" as="geometry"/>
                </mxCell>
                <mxCell id="_ZwvrWTYbWZkt-ZXVWBP-97" value="2" style="text;html=1;align=center;verticalAlign=middle;whiteSpace=wrap;rounded=0;" parent="1" vertex="1">
                    <mxGeometry x="430" y="985" width="60" height="30" as="geometry"/>
                </mxCell>
                <mxCell id="_ZwvrWTYbWZkt-ZXVWBP-98" value="3" style="text;html=1;align=center;verticalAlign=middle;whiteSpace=wrap;rounded=0;" parent="1" vertex="1">
                    <mxGeometry x="430" y="945" width="60" height="30" as="geometry"/>
                </mxCell>
                <mxCell id="_ZwvrWTYbWZkt-ZXVWBP-99" value="4" style="text;html=1;align=center;verticalAlign=middle;whiteSpace=wrap;rounded=0;" parent="1" vertex="1">
                    <mxGeometry x="430" y="905" width="60" height="30" as="geometry"/>
                </mxCell>
                <mxCell id="_ZwvrWTYbWZkt-ZXVWBP-100" value="5" style="text;html=1;align=center;verticalAlign=middle;whiteSpace=wrap;rounded=0;" parent="1" vertex="1">
                    <mxGeometry x="430" y="865" width="60" height="30" as="geometry"/>
                </mxCell>
                <mxCell id="_ZwvrWTYbWZkt-ZXVWBP-101" value="6" style="text;html=1;align=center;verticalAlign=middle;whiteSpace=wrap;rounded=0;" parent="1" vertex="1">
                    <mxGeometry x="430" y="825" width="60" height="30" as="geometry"/>
                </mxCell>
                <mxCell id="_ZwvrWTYbWZkt-ZXVWBP-102" value="7" style="text;html=1;align=center;verticalAlign=middle;whiteSpace=wrap;rounded=0;" parent="1" vertex="1">
                    <mxGeometry x="430" y="785" width="60" height="30" as="geometry"/>
                </mxCell>
                <mxCell id="_ZwvrWTYbWZkt-ZXVWBP-103" value="8" style="text;html=1;align=center;verticalAlign=middle;whiteSpace=wrap;rounded=0;" parent="1" vertex="1">
                    <mxGeometry x="430" y="745" width="60" height="30" as="geometry"/>
                </mxCell>
                <mxCell id="_ZwvrWTYbWZkt-ZXVWBP-104" value="9" style="text;html=1;align=center;verticalAlign=middle;whiteSpace=wrap;rounded=0;" parent="1" vertex="1">
                    <mxGeometry x="430" y="705" width="60" height="30" as="geometry"/>
                </mxCell>
                <mxCell id="_ZwvrWTYbWZkt-ZXVWBP-127" value="" style="endArrow=classic;html=1;rounded=0;" parent="1" edge="1">
                    <mxGeometry width="50" height="50" relative="1" as="geometry">
                        <mxPoint x="120" y="1080" as="sourcePoint"/>
                        <mxPoint x="120" y="680" as="targetPoint"/>
                    </mxGeometry>
                </mxCell>
                <mxCell id="_ZwvrWTYbWZkt-ZXVWBP-128" value="" style="endArrow=classic;html=1;rounded=0;exitX=0;exitY=1;exitDx=0;exitDy=0;" parent="1" source="_ZwvrWTYbWZkt-ZXVWBP-136" edge="1">
                    <mxGeometry width="50" height="50" relative="1" as="geometry">
                        <mxPoint x="100" y="1080" as="sourcePoint"/>
                        <mxPoint x="360" y="1080" as="targetPoint"/>
                    </mxGeometry>
                </mxCell>
                <mxCell id="_ZwvrWTYbWZkt-ZXVWBP-129" value="1" style="text;html=1;align=center;verticalAlign=middle;whiteSpace=wrap;rounded=0;" parent="1" vertex="1">
                    <mxGeometry x="130" y="1080" width="60" height="30" as="geometry"/>
                </mxCell>
                <mxCell id="_ZwvrWTYbWZkt-ZXVWBP-130" value="2" style="text;html=1;align=center;verticalAlign=middle;whiteSpace=wrap;rounded=0;" parent="1" vertex="1">
                    <mxGeometry x="170" y="1080" width="60" height="30" as="geometry"/>
                </mxCell>
                <mxCell id="_ZwvrWTYbWZkt-ZXVWBP-131" value="4" style="text;html=1;align=center;verticalAlign=middle;whiteSpace=wrap;rounded=0;" parent="1" vertex="1">
                    <mxGeometry x="250" y="1080" width="60" height="30" as="geometry"/>
                </mxCell>
                <mxCell id="_ZwvrWTYbWZkt-ZXVWBP-132" value="3" style="text;html=1;align=center;verticalAlign=middle;whiteSpace=wrap;rounded=0;" parent="1" vertex="1">
                    <mxGeometry x="210" y="1080" width="60" height="30" as="geometry"/>
                </mxCell>
                <mxCell id="_ZwvrWTYbWZkt-ZXVWBP-133" value="5" style="text;html=1;align=center;verticalAlign=middle;whiteSpace=wrap;rounded=0;" parent="1" vertex="1">
                    <mxGeometry x="290" y="1080" width="60" height="30" as="geometry"/>
                </mxCell>
                <mxCell id="_ZwvrWTYbWZkt-ZXVWBP-134" value="5" style="rounded=0;whiteSpace=wrap;html=1;fillStyle=auto;fillColor=#e51400;strokeColor=#B20000;fontColor=#ffffff;" parent="1" vertex="1">
                    <mxGeometry x="120" y="720" width="200" height="40" as="geometry"/>
                </mxCell>
                <mxCell id="_ZwvrWTYbWZkt-ZXVWBP-135" value="3" style="rounded=0;whiteSpace=wrap;html=1;fillStyle=auto;fillColor=#e51400;strokeColor=#B20000;fontColor=#ffffff;" parent="1" vertex="1">
                    <mxGeometry x="120" y="880" width="200" height="40" as="geometry"/>
                </mxCell>
                <mxCell id="_ZwvrWTYbWZkt-ZXVWBP-136" value="1" style="rounded=0;whiteSpace=wrap;html=1;fillStyle=auto;fillColor=#e51400;strokeColor=#B20000;fontColor=#ffffff;" parent="1" vertex="1">
                    <mxGeometry x="120" y="1040" width="200" height="40" as="geometry"/>
                </mxCell>
                <mxCell id="_ZwvrWTYbWZkt-ZXVWBP-137" value="4" style="rounded=0;whiteSpace=wrap;html=1;fillStyle=auto;fillColor=#e51400;strokeColor=#B20000;fontColor=#ffffff;" parent="1" vertex="1">
                    <mxGeometry x="280" y="760" width="40" height="120" as="geometry"/>
                </mxCell>
                <mxCell id="_ZwvrWTYbWZkt-ZXVWBP-138" value="2" style="rounded=0;whiteSpace=wrap;html=1;fillStyle=auto;fillColor=#e51400;strokeColor=#B20000;fontColor=#ffffff;" parent="1" vertex="1">
                    <mxGeometry x="280" y="920" width="40" height="120" as="geometry"/>
                </mxCell>
                <mxCell id="_ZwvrWTYbWZkt-ZXVWBP-139" value="&lt;h1 style=&quot;margin-top: 0px;&quot;&gt;3&lt;/h1&gt;&lt;p&gt;x,y,5,1&lt;br&gt;x+4,y+1,1,3&lt;br&gt;x,y+4,5,1&lt;br&gt;x+4,y+5,1,3&lt;br&gt;x,y+8,5,1&lt;/p&gt;" style="text;html=1;whiteSpace=wrap;overflow=hidden;rounded=0;" parent="1" vertex="1">
                    <mxGeometry x="120" y="1120" width="180" height="120" as="geometry"/>
                </mxCell>
                <mxCell id="_ZwvrWTYbWZkt-ZXVWBP-140" value="1" style="text;html=1;align=center;verticalAlign=middle;whiteSpace=wrap;rounded=0;" parent="1" vertex="1">
                    <mxGeometry x="70" y="1025" width="60" height="30" as="geometry"/>
                </mxCell>
                <mxCell id="_ZwvrWTYbWZkt-ZXVWBP-141" value="2" style="text;html=1;align=center;verticalAlign=middle;whiteSpace=wrap;rounded=0;" parent="1" vertex="1">
                    <mxGeometry x="70" y="985" width="60" height="30" as="geometry"/>
                </mxCell>
                <mxCell id="_ZwvrWTYbWZkt-ZXVWBP-142" value="3" style="text;html=1;align=center;verticalAlign=middle;whiteSpace=wrap;rounded=0;" parent="1" vertex="1">
                    <mxGeometry x="70" y="945" width="60" height="30" as="geometry"/>
                </mxCell>
                <mxCell id="_ZwvrWTYbWZkt-ZXVWBP-143" value="4" style="text;html=1;align=center;verticalAlign=middle;whiteSpace=wrap;rounded=0;" parent="1" vertex="1">
                    <mxGeometry x="70" y="905" width="60" height="30" as="geometry"/>
                </mxCell>
                <mxCell id="_ZwvrWTYbWZkt-ZXVWBP-144" value="5" style="text;html=1;align=center;verticalAlign=middle;whiteSpace=wrap;rounded=0;" parent="1" vertex="1">
                    <mxGeometry x="70" y="865" width="60" height="30" as="geometry"/>
                </mxCell>
                <mxCell id="_ZwvrWTYbWZkt-ZXVWBP-145" value="6" style="text;html=1;align=center;verticalAlign=middle;whiteSpace=wrap;rounded=0;" parent="1" vertex="1">
                    <mxGeometry x="70" y="825" width="60" height="30" as="geometry"/>
                </mxCell>
                <mxCell id="_ZwvrWTYbWZkt-ZXVWBP-146" value="7" style="text;html=1;align=center;verticalAlign=middle;whiteSpace=wrap;rounded=0;" parent="1" vertex="1">
                    <mxGeometry x="70" y="785" width="60" height="30" as="geometry"/>
                </mxCell>
                <mxCell id="_ZwvrWTYbWZkt-ZXVWBP-147" value="8" style="text;html=1;align=center;verticalAlign=middle;whiteSpace=wrap;rounded=0;" parent="1" vertex="1">
                    <mxGeometry x="70" y="745" width="60" height="30" as="geometry"/>
                </mxCell>
                <mxCell id="_ZwvrWTYbWZkt-ZXVWBP-148" value="9" style="text;html=1;align=center;verticalAlign=middle;whiteSpace=wrap;rounded=0;" parent="1" vertex="1">
                    <mxGeometry x="70" y="705" width="60" height="30" as="geometry"/>
                </mxCell>
                <mxCell id="_ZwvrWTYbWZkt-ZXVWBP-149" value="1&lt;div&gt;&lt;/div&gt;" style="rounded=0;whiteSpace=wrap;html=1;fillStyle=auto;fillColor=#e51400;strokeColor=#B20000;fontColor=#ffffff;" parent="1" vertex="1">
                    <mxGeometry x="640" y="720" width="40" height="360" as="geometry"/>
                </mxCell>
                <mxCell id="_ZwvrWTYbWZkt-ZXVWBP-150" value="&lt;h1 style=&quot;margin-top: 0px;&quot;&gt;1&lt;/h1&gt;&lt;p&gt;x+1,y,3,1&lt;br&gt;x+2,y+1,1,8&lt;br&gt;x+1,y+7,1,1&lt;/p&gt;" style="text;html=1;whiteSpace=wrap;overflow=hidden;rounded=0;" parent="1" vertex="1">
                    <mxGeometry x="120" y="480" width="180" height="120" as="geometry"/>
                </mxCell>
                <mxCell id="_ZwvrWTYbWZkt-ZXVWBP-151" value="2" style="rounded=0;whiteSpace=wrap;html=1;fillStyle=auto;fillColor=#e51400;strokeColor=#B20000;fontColor=#ffffff;" parent="1" vertex="1">
                    <mxGeometry x="480" y="880" width="160" height="40" as="geometry"/>
                </mxCell>
                <mxCell id="_ZwvrWTYbWZkt-ZXVWBP-152" value="3" style="rounded=0;whiteSpace=wrap;html=1;fillStyle=auto;fillColor=#e51400;strokeColor=#B20000;fontColor=#ffffff;" parent="1" vertex="1">
                    <mxGeometry x="480" y="720" width="40" height="160" as="geometry"/>
                </mxCell>
                <mxCell id="_ZwvrWTYbWZkt-ZXVWBP-212" value="" style="endArrow=classic;html=1;rounded=0;" parent="1" edge="1">
                    <mxGeometry width="50" height="50" relative="1" as="geometry">
                        <mxPoint x="120" y="1720" as="sourcePoint"/>
                        <mxPoint x="120" y="1320" as="targetPoint"/>
                    </mxGeometry>
                </mxCell>
                <mxCell id="_ZwvrWTYbWZkt-ZXVWBP-213" value="" style="endArrow=classic;html=1;rounded=0;exitX=0;exitY=1;exitDx=0;exitDy=0;" parent="1" source="_ZwvrWTYbWZkt-ZXVWBP-221" edge="1">
                    <mxGeometry width="50" height="50" relative="1" as="geometry">
                        <mxPoint x="100" y="1720" as="sourcePoint"/>
                        <mxPoint x="360" y="1720" as="targetPoint"/>
                    </mxGeometry>
                </mxCell>
                <mxCell id="_ZwvrWTYbWZkt-ZXVWBP-214" value="1" style="text;html=1;align=center;verticalAlign=middle;whiteSpace=wrap;rounded=0;" parent="1" vertex="1">
                    <mxGeometry x="130" y="1720" width="60" height="30" as="geometry"/>
                </mxCell>
                <mxCell id="_ZwvrWTYbWZkt-ZXVWBP-215" value="2" style="text;html=1;align=center;verticalAlign=middle;whiteSpace=wrap;rounded=0;" parent="1" vertex="1">
                    <mxGeometry x="170" y="1720" width="60" height="30" as="geometry"/>
                </mxCell>
                <mxCell id="_ZwvrWTYbWZkt-ZXVWBP-216" value="4" style="text;html=1;align=center;verticalAlign=middle;whiteSpace=wrap;rounded=0;" parent="1" vertex="1">
                    <mxGeometry x="250" y="1720" width="60" height="30" as="geometry"/>
                </mxCell>
                <mxCell id="_ZwvrWTYbWZkt-ZXVWBP-217" value="3" style="text;html=1;align=center;verticalAlign=middle;whiteSpace=wrap;rounded=0;" parent="1" vertex="1">
                    <mxGeometry x="210" y="1720" width="60" height="30" as="geometry"/>
                </mxCell>
                <mxCell id="_ZwvrWTYbWZkt-ZXVWBP-218" value="5" style="text;html=1;align=center;verticalAlign=middle;whiteSpace=wrap;rounded=0;" parent="1" vertex="1">
                    <mxGeometry x="290" y="1720" width="60" height="30" as="geometry"/>
                </mxCell>
                <mxCell id="_ZwvrWTYbWZkt-ZXVWBP-219" value="5" style="rounded=0;whiteSpace=wrap;html=1;fillStyle=auto;fillColor=#e51400;strokeColor=#B20000;fontColor=#ffffff;" parent="1" vertex="1">
                    <mxGeometry x="120" y="1360" width="200" height="40" as="geometry"/>
                </mxCell>
                <mxCell id="_ZwvrWTYbWZkt-ZXVWBP-220" value="3" style="rounded=0;whiteSpace=wrap;html=1;fillStyle=auto;fillColor=#e51400;strokeColor=#B20000;fontColor=#ffffff;" parent="1" vertex="1">
                    <mxGeometry x="120" y="1520" width="200" height="40" as="geometry"/>
                </mxCell>
                <mxCell id="_ZwvrWTYbWZkt-ZXVWBP-221" value="1" style="rounded=0;whiteSpace=wrap;html=1;fillStyle=auto;fillColor=#e51400;strokeColor=#B20000;fontColor=#ffffff;" parent="1" vertex="1">
                    <mxGeometry x="120" y="1680" width="200" height="40" as="geometry"/>
                </mxCell>
                <mxCell id="_ZwvrWTYbWZkt-ZXVWBP-222" value="4" style="rounded=0;whiteSpace=wrap;html=1;fillStyle=auto;fillColor=#e51400;strokeColor=#B20000;fontColor=#ffffff;" parent="1" vertex="1">
                    <mxGeometry x="120" y="1400" width="40" height="120" as="geometry"/>
                </mxCell>
                <mxCell id="_ZwvrWTYbWZkt-ZXVWBP-223" value="2" style="rounded=0;whiteSpace=wrap;html=1;fillStyle=auto;fillColor=#e51400;strokeColor=#B20000;fontColor=#ffffff;" parent="1" vertex="1">
                    <mxGeometry x="280" y="1560" width="40" height="120" as="geometry"/>
                </mxCell>
                <mxCell id="_ZwvrWTYbWZkt-ZXVWBP-224" value="&lt;h1 style=&quot;margin-top: 0px;&quot;&gt;5&lt;/h1&gt;&lt;p&gt;x,y,5,1&lt;br&gt;x+4,y+1,1,3&lt;br&gt;x,y+4,5,1&lt;br&gt;x,y+5,1,3&lt;br&gt;x,y+8,5,1&lt;/p&gt;" style="text;html=1;whiteSpace=wrap;overflow=hidden;rounded=0;" parent="1" vertex="1">
                    <mxGeometry x="120" y="1760" width="180" height="120" as="geometry"/>
                </mxCell>
                <mxCell id="_ZwvrWTYbWZkt-ZXVWBP-225" value="1" style="text;html=1;align=center;verticalAlign=middle;whiteSpace=wrap;rounded=0;" parent="1" vertex="1">
                    <mxGeometry x="70" y="1665" width="60" height="30" as="geometry"/>
                </mxCell>
                <mxCell id="_ZwvrWTYbWZkt-ZXVWBP-226" value="2" style="text;html=1;align=center;verticalAlign=middle;whiteSpace=wrap;rounded=0;" parent="1" vertex="1">
                    <mxGeometry x="70" y="1625" width="60" height="30" as="geometry"/>
                </mxCell>
                <mxCell id="_ZwvrWTYbWZkt-ZXVWBP-227" value="3" style="text;html=1;align=center;verticalAlign=middle;whiteSpace=wrap;rounded=0;" parent="1" vertex="1">
                    <mxGeometry x="70" y="1585" width="60" height="30" as="geometry"/>
                </mxCell>
                <mxCell id="_ZwvrWTYbWZkt-ZXVWBP-228" value="4" style="text;html=1;align=center;verticalAlign=middle;whiteSpace=wrap;rounded=0;" parent="1" vertex="1">
                    <mxGeometry x="70" y="1545" width="60" height="30" as="geometry"/>
                </mxCell>
                <mxCell id="_ZwvrWTYbWZkt-ZXVWBP-229" value="5" style="text;html=1;align=center;verticalAlign=middle;whiteSpace=wrap;rounded=0;" parent="1" vertex="1">
                    <mxGeometry x="70" y="1505" width="60" height="30" as="geometry"/>
                </mxCell>
                <mxCell id="_ZwvrWTYbWZkt-ZXVWBP-230" value="6" style="text;html=1;align=center;verticalAlign=middle;whiteSpace=wrap;rounded=0;" parent="1" vertex="1">
                    <mxGeometry x="70" y="1465" width="60" height="30" as="geometry"/>
                </mxCell>
                <mxCell id="_ZwvrWTYbWZkt-ZXVWBP-231" value="7" style="text;html=1;align=center;verticalAlign=middle;whiteSpace=wrap;rounded=0;" parent="1" vertex="1">
                    <mxGeometry x="70" y="1425" width="60" height="30" as="geometry"/>
                </mxCell>
                <mxCell id="_ZwvrWTYbWZkt-ZXVWBP-232" value="8" style="text;html=1;align=center;verticalAlign=middle;whiteSpace=wrap;rounded=0;" parent="1" vertex="1">
                    <mxGeometry x="70" y="1385" width="60" height="30" as="geometry"/>
                </mxCell>
                <mxCell id="_ZwvrWTYbWZkt-ZXVWBP-233" value="9" style="text;html=1;align=center;verticalAlign=middle;whiteSpace=wrap;rounded=0;" parent="1" vertex="1">
                    <mxGeometry x="70" y="1345" width="60" height="30" as="geometry"/>
                </mxCell>
                <mxCell id="_ZwvrWTYbWZkt-ZXVWBP-237" value="" style="endArrow=classic;html=1;rounded=0;" parent="1" edge="1">
                    <mxGeometry width="50" height="50" relative="1" as="geometry">
                        <mxPoint x="480" y="1720" as="sourcePoint"/>
                        <mxPoint x="480" y="1320" as="targetPoint"/>
                    </mxGeometry>
                </mxCell>
                <mxCell id="_ZwvrWTYbWZkt-ZXVWBP-238" value="" style="endArrow=classic;html=1;rounded=0;exitX=0;exitY=1;exitDx=0;exitDy=0;" parent="1" edge="1">
                    <mxGeometry width="50" height="50" relative="1" as="geometry">
                        <mxPoint x="480" y="1720" as="sourcePoint"/>
                        <mxPoint x="720" y="1720" as="targetPoint"/>
                    </mxGeometry>
                </mxCell>
                <mxCell id="_ZwvrWTYbWZkt-ZXVWBP-239" value="1" style="text;html=1;align=center;verticalAlign=middle;whiteSpace=wrap;rounded=0;" parent="1" vertex="1">
                    <mxGeometry x="490" y="1720" width="60" height="30" as="geometry"/>
                </mxCell>
                <mxCell id="_ZwvrWTYbWZkt-ZXVWBP-240" value="2" style="text;html=1;align=center;verticalAlign=middle;whiteSpace=wrap;rounded=0;" parent="1" vertex="1">
                    <mxGeometry x="530" y="1720" width="60" height="30" as="geometry"/>
                </mxCell>
                <mxCell id="_ZwvrWTYbWZkt-ZXVWBP-241" value="4" style="text;html=1;align=center;verticalAlign=middle;whiteSpace=wrap;rounded=0;" parent="1" vertex="1">
                    <mxGeometry x="610" y="1720" width="60" height="30" as="geometry"/>
                </mxCell>
                <mxCell id="_ZwvrWTYbWZkt-ZXVWBP-242" value="3" style="text;html=1;align=center;verticalAlign=middle;whiteSpace=wrap;rounded=0;" parent="1" vertex="1">
                    <mxGeometry x="570" y="1720" width="60" height="30" as="geometry"/>
                </mxCell>
                <mxCell id="_ZwvrWTYbWZkt-ZXVWBP-243" value="5" style="text;html=1;align=center;verticalAlign=middle;whiteSpace=wrap;rounded=0;" parent="1" vertex="1">
                    <mxGeometry x="650" y="1720" width="60" height="30" as="geometry"/>
                </mxCell>
                <mxCell id="_ZwvrWTYbWZkt-ZXVWBP-244" value="5" style="rounded=0;whiteSpace=wrap;html=1;fillStyle=auto;fillColor=#e51400;strokeColor=#B20000;fontColor=#ffffff;" parent="1" vertex="1">
                    <mxGeometry x="480" y="1360" width="200" height="40" as="geometry"/>
                </mxCell>
                <mxCell id="_ZwvrWTYbWZkt-ZXVWBP-247" value="4" style="rounded=0;whiteSpace=wrap;html=1;fillStyle=auto;fillColor=#e51400;strokeColor=#B20000;fontColor=#ffffff;" parent="1" vertex="1">
                    <mxGeometry x="480" y="1400" width="40" height="120" as="geometry"/>
                </mxCell>
                <mxCell id="_ZwvrWTYbWZkt-ZXVWBP-249" value="&lt;h1 style=&quot;margin-top: 0px;&quot;&gt;6&lt;/h1&gt;&lt;p&gt;&lt;span style=&quot;background-color: initial;&quot;&gt;x,y,5,5 *&lt;br&gt;&lt;/span&gt;&lt;span style=&quot;background-color: initial;&quot;&gt;x,y+5,1,3&lt;br&gt;&lt;/span&gt;&lt;span style=&quot;background-color: initial;&quot;&gt;x,y+8,5,1&lt;/span&gt;&lt;/p&gt;" style="text;html=1;whiteSpace=wrap;overflow=hidden;rounded=0;" parent="1" vertex="1">
                    <mxGeometry x="480" y="1760" width="180" height="120" as="geometry"/>
                </mxCell>
                <mxCell id="_ZwvrWTYbWZkt-ZXVWBP-250" value="1" style="text;html=1;align=center;verticalAlign=middle;whiteSpace=wrap;rounded=0;" parent="1" vertex="1">
                    <mxGeometry x="430" y="1665" width="60" height="30" as="geometry"/>
                </mxCell>
                <mxCell id="_ZwvrWTYbWZkt-ZXVWBP-251" value="2" style="text;html=1;align=center;verticalAlign=middle;whiteSpace=wrap;rounded=0;" parent="1" vertex="1">
                    <mxGeometry x="430" y="1625" width="60" height="30" as="geometry"/>
                </mxCell>
                <mxCell id="_ZwvrWTYbWZkt-ZXVWBP-252" value="3" style="text;html=1;align=center;verticalAlign=middle;whiteSpace=wrap;rounded=0;" parent="1" vertex="1">
                    <mxGeometry x="430" y="1585" width="60" height="30" as="geometry"/>
                </mxCell>
                <mxCell id="_ZwvrWTYbWZkt-ZXVWBP-253" value="4" style="text;html=1;align=center;verticalAlign=middle;whiteSpace=wrap;rounded=0;" parent="1" vertex="1">
                    <mxGeometry x="430" y="1545" width="60" height="30" as="geometry"/>
                </mxCell>
                <mxCell id="_ZwvrWTYbWZkt-ZXVWBP-254" value="5" style="text;html=1;align=center;verticalAlign=middle;whiteSpace=wrap;rounded=0;" parent="1" vertex="1">
                    <mxGeometry x="430" y="1505" width="60" height="30" as="geometry"/>
                </mxCell>
                <mxCell id="_ZwvrWTYbWZkt-ZXVWBP-255" value="6" style="text;html=1;align=center;verticalAlign=middle;whiteSpace=wrap;rounded=0;" parent="1" vertex="1">
                    <mxGeometry x="430" y="1465" width="60" height="30" as="geometry"/>
                </mxCell>
                <mxCell id="_ZwvrWTYbWZkt-ZXVWBP-256" value="7" style="text;html=1;align=center;verticalAlign=middle;whiteSpace=wrap;rounded=0;" parent="1" vertex="1">
                    <mxGeometry x="430" y="1425" width="60" height="30" as="geometry"/>
                </mxCell>
                <mxCell id="_ZwvrWTYbWZkt-ZXVWBP-257" value="8" style="text;html=1;align=center;verticalAlign=middle;whiteSpace=wrap;rounded=0;" parent="1" vertex="1">
                    <mxGeometry x="430" y="1385" width="60" height="30" as="geometry"/>
                </mxCell>
                <mxCell id="_ZwvrWTYbWZkt-ZXVWBP-258" value="9" style="text;html=1;align=center;verticalAlign=middle;whiteSpace=wrap;rounded=0;" parent="1" vertex="1">
                    <mxGeometry x="430" y="1345" width="60" height="30" as="geometry"/>
                </mxCell>
                <mxCell id="_ZwvrWTYbWZkt-ZXVWBP-260" value="1" style="rounded=0;whiteSpace=wrap;html=1;fillColor=none;strokeWidth=40;strokeColor=#FF0000;" parent="1" vertex="1">
                    <mxGeometry x="501" y="1540" width="160" height="160" as="geometry"/>
                </mxCell>
                <mxCell id="_ZwvrWTYbWZkt-ZXVWBP-281" value="" style="endArrow=classic;html=1;rounded=0;" parent="1" edge="1">
                    <mxGeometry width="50" height="50" relative="1" as="geometry">
                        <mxPoint x="120" y="2320" as="sourcePoint"/>
                        <mxPoint x="120" y="1920" as="targetPoint"/>
                    </mxGeometry>
                </mxCell>
                <mxCell id="_ZwvrWTYbWZkt-ZXVWBP-282" value="" style="endArrow=classic;html=1;rounded=0;exitX=0;exitY=1;exitDx=0;exitDy=0;" parent="1" edge="1">
                    <mxGeometry width="50" height="50" relative="1" as="geometry">
                        <mxPoint x="120" y="2320" as="sourcePoint"/>
                        <mxPoint x="360" y="2320" as="targetPoint"/>
                    </mxGeometry>
                </mxCell>
                <mxCell id="_ZwvrWTYbWZkt-ZXVWBP-283" value="1" style="text;html=1;align=center;verticalAlign=middle;whiteSpace=wrap;rounded=0;" parent="1" vertex="1">
                    <mxGeometry x="130" y="2320" width="60" height="30" as="geometry"/>
                </mxCell>
                <mxCell id="_ZwvrWTYbWZkt-ZXVWBP-284" value="2" style="text;html=1;align=center;verticalAlign=middle;whiteSpace=wrap;rounded=0;" parent="1" vertex="1">
                    <mxGeometry x="170" y="2320" width="60" height="30" as="geometry"/>
                </mxCell>
                <mxCell id="_ZwvrWTYbWZkt-ZXVWBP-285" value="4" style="text;html=1;align=center;verticalAlign=middle;whiteSpace=wrap;rounded=0;" parent="1" vertex="1">
                    <mxGeometry x="250" y="2320" width="60" height="30" as="geometry"/>
                </mxCell>
                <mxCell id="_ZwvrWTYbWZkt-ZXVWBP-286" value="3" style="text;html=1;align=center;verticalAlign=middle;whiteSpace=wrap;rounded=0;" parent="1" vertex="1">
                    <mxGeometry x="210" y="2320" width="60" height="30" as="geometry"/>
                </mxCell>
                <mxCell id="_ZwvrWTYbWZkt-ZXVWBP-287" value="5" style="text;html=1;align=center;verticalAlign=middle;whiteSpace=wrap;rounded=0;" parent="1" vertex="1">
                    <mxGeometry x="290" y="2320" width="60" height="30" as="geometry"/>
                </mxCell>
                <mxCell id="_ZwvrWTYbWZkt-ZXVWBP-288" value="&lt;h1 style=&quot;margin-top: 0px;&quot;&gt;7&lt;/h1&gt;&lt;p&gt;x+4,y,1,9&lt;br&gt;x,y+8,4,1&lt;br&gt;&lt;/p&gt;" style="text;html=1;whiteSpace=wrap;overflow=hidden;rounded=0;" parent="1" vertex="1">
                    <mxGeometry x="120" y="2360" width="180" height="120" as="geometry"/>
                </mxCell>
                <mxCell id="_ZwvrWTYbWZkt-ZXVWBP-289" value="1" style="text;html=1;align=center;verticalAlign=middle;whiteSpace=wrap;rounded=0;" parent="1" vertex="1">
                    <mxGeometry x="70" y="2265" width="60" height="30" as="geometry"/>
                </mxCell>
                <mxCell id="_ZwvrWTYbWZkt-ZXVWBP-290" value="2" style="text;html=1;align=center;verticalAlign=middle;whiteSpace=wrap;rounded=0;" parent="1" vertex="1">
                    <mxGeometry x="70" y="2225" width="60" height="30" as="geometry"/>
                </mxCell>
                <mxCell id="_ZwvrWTYbWZkt-ZXVWBP-291" value="3" style="text;html=1;align=center;verticalAlign=middle;whiteSpace=wrap;rounded=0;" parent="1" vertex="1">
                    <mxGeometry x="70" y="2185" width="60" height="30" as="geometry"/>
                </mxCell>
                <mxCell id="_ZwvrWTYbWZkt-ZXVWBP-292" value="4" style="text;html=1;align=center;verticalAlign=middle;whiteSpace=wrap;rounded=0;" parent="1" vertex="1">
                    <mxGeometry x="70" y="2145" width="60" height="30" as="geometry"/>
                </mxCell>
                <mxCell id="_ZwvrWTYbWZkt-ZXVWBP-293" value="5" style="text;html=1;align=center;verticalAlign=middle;whiteSpace=wrap;rounded=0;" parent="1" vertex="1">
                    <mxGeometry x="70" y="2105" width="60" height="30" as="geometry"/>
                </mxCell>
                <mxCell id="_ZwvrWTYbWZkt-ZXVWBP-294" value="6" style="text;html=1;align=center;verticalAlign=middle;whiteSpace=wrap;rounded=0;" parent="1" vertex="1">
                    <mxGeometry x="70" y="2065" width="60" height="30" as="geometry"/>
                </mxCell>
                <mxCell id="_ZwvrWTYbWZkt-ZXVWBP-295" value="7" style="text;html=1;align=center;verticalAlign=middle;whiteSpace=wrap;rounded=0;" parent="1" vertex="1">
                    <mxGeometry x="70" y="2025" width="60" height="30" as="geometry"/>
                </mxCell>
                <mxCell id="_ZwvrWTYbWZkt-ZXVWBP-296" value="8" style="text;html=1;align=center;verticalAlign=middle;whiteSpace=wrap;rounded=0;" parent="1" vertex="1">
                    <mxGeometry x="70" y="1985" width="60" height="30" as="geometry"/>
                </mxCell>
                <mxCell id="_ZwvrWTYbWZkt-ZXVWBP-297" value="9" style="text;html=1;align=center;verticalAlign=middle;whiteSpace=wrap;rounded=0;" parent="1" vertex="1">
                    <mxGeometry x="70" y="1945" width="60" height="30" as="geometry"/>
                </mxCell>
                <mxCell id="_ZwvrWTYbWZkt-ZXVWBP-298" value="1&lt;div&gt;&lt;/div&gt;" style="rounded=0;whiteSpace=wrap;html=1;fillStyle=auto;fillColor=#e51400;strokeColor=#B20000;fontColor=#ffffff;" parent="1" vertex="1">
                    <mxGeometry x="280" y="1960" width="40" height="360" as="geometry"/>
                </mxCell>
                <mxCell id="_ZwvrWTYbWZkt-ZXVWBP-299" value="2" style="rounded=0;whiteSpace=wrap;html=1;fillStyle=auto;fillColor=#e51400;strokeColor=#B20000;fontColor=#ffffff;" parent="1" vertex="1">
                    <mxGeometry x="120" y="1960" width="160" height="40" as="geometry"/>
                </mxCell>
                <mxCell id="_ZwvrWTYbWZkt-ZXVWBP-301" value="" style="endArrow=classic;html=1;rounded=0;" parent="1" edge="1">
                    <mxGeometry width="50" height="50" relative="1" as="geometry">
                        <mxPoint x="480" y="2320" as="sourcePoint"/>
                        <mxPoint x="480" y="1920" as="targetPoint"/>
                    </mxGeometry>
                </mxCell>
                <mxCell id="_ZwvrWTYbWZkt-ZXVWBP-302" value="" style="endArrow=classic;html=1;rounded=0;exitX=0;exitY=1;exitDx=0;exitDy=0;" parent="1" edge="1">
                    <mxGeometry width="50" height="50" relative="1" as="geometry">
                        <mxPoint x="480" y="2320" as="sourcePoint"/>
                        <mxPoint x="720" y="2320" as="targetPoint"/>
                    </mxGeometry>
                </mxCell>
                <mxCell id="_ZwvrWTYbWZkt-ZXVWBP-303" value="1" style="text;html=1;align=center;verticalAlign=middle;whiteSpace=wrap;rounded=0;" parent="1" vertex="1">
                    <mxGeometry x="490" y="2320" width="60" height="30" as="geometry"/>
                </mxCell>
                <mxCell id="_ZwvrWTYbWZkt-ZXVWBP-304" value="2" style="text;html=1;align=center;verticalAlign=middle;whiteSpace=wrap;rounded=0;" parent="1" vertex="1">
                    <mxGeometry x="530" y="2320" width="60" height="30" as="geometry"/>
                </mxCell>
                <mxCell id="_ZwvrWTYbWZkt-ZXVWBP-305" value="4" style="text;html=1;align=center;verticalAlign=middle;whiteSpace=wrap;rounded=0;" parent="1" vertex="1">
                    <mxGeometry x="610" y="2320" width="60" height="30" as="geometry"/>
                </mxCell>
                <mxCell id="_ZwvrWTYbWZkt-ZXVWBP-306" value="3" style="text;html=1;align=center;verticalAlign=middle;whiteSpace=wrap;rounded=0;" parent="1" vertex="1">
                    <mxGeometry x="570" y="2320" width="60" height="30" as="geometry"/>
                </mxCell>
                <mxCell id="_ZwvrWTYbWZkt-ZXVWBP-307" value="5" style="text;html=1;align=center;verticalAlign=middle;whiteSpace=wrap;rounded=0;" parent="1" vertex="1">
                    <mxGeometry x="650" y="2320" width="60" height="30" as="geometry"/>
                </mxCell>
                <mxCell id="_ZwvrWTYbWZkt-ZXVWBP-310" value="1" style="text;html=1;align=center;verticalAlign=middle;whiteSpace=wrap;rounded=0;" parent="1" vertex="1">
                    <mxGeometry x="430" y="2265" width="60" height="30" as="geometry"/>
                </mxCell>
                <mxCell id="_ZwvrWTYbWZkt-ZXVWBP-311" value="2" style="text;html=1;align=center;verticalAlign=middle;whiteSpace=wrap;rounded=0;" parent="1" vertex="1">
                    <mxGeometry x="430" y="2225" width="60" height="30" as="geometry"/>
                </mxCell>
                <mxCell id="_ZwvrWTYbWZkt-ZXVWBP-312" value="3" style="text;html=1;align=center;verticalAlign=middle;whiteSpace=wrap;rounded=0;" parent="1" vertex="1">
                    <mxGeometry x="430" y="2185" width="60" height="30" as="geometry"/>
                </mxCell>
                <mxCell id="_ZwvrWTYbWZkt-ZXVWBP-313" value="4" style="text;html=1;align=center;verticalAlign=middle;whiteSpace=wrap;rounded=0;" parent="1" vertex="1">
                    <mxGeometry x="430" y="2145" width="60" height="30" as="geometry"/>
                </mxCell>
                <mxCell id="_ZwvrWTYbWZkt-ZXVWBP-314" value="5" style="text;html=1;align=center;verticalAlign=middle;whiteSpace=wrap;rounded=0;" parent="1" vertex="1">
                    <mxGeometry x="430" y="2105" width="60" height="30" as="geometry"/>
                </mxCell>
                <mxCell id="_ZwvrWTYbWZkt-ZXVWBP-315" value="6" style="text;html=1;align=center;verticalAlign=middle;whiteSpace=wrap;rounded=0;" parent="1" vertex="1">
                    <mxGeometry x="430" y="2065" width="60" height="30" as="geometry"/>
                </mxCell>
                <mxCell id="_ZwvrWTYbWZkt-ZXVWBP-316" value="7" style="text;html=1;align=center;verticalAlign=middle;whiteSpace=wrap;rounded=0;" parent="1" vertex="1">
                    <mxGeometry x="430" y="2025" width="60" height="30" as="geometry"/>
                </mxCell>
                <mxCell id="_ZwvrWTYbWZkt-ZXVWBP-317" value="8" style="text;html=1;align=center;verticalAlign=middle;whiteSpace=wrap;rounded=0;" parent="1" vertex="1">
                    <mxGeometry x="430" y="1985" width="60" height="30" as="geometry"/>
                </mxCell>
                <mxCell id="_ZwvrWTYbWZkt-ZXVWBP-318" value="9" style="text;html=1;align=center;verticalAlign=middle;whiteSpace=wrap;rounded=0;" parent="1" vertex="1">
                    <mxGeometry x="430" y="1945" width="60" height="30" as="geometry"/>
                </mxCell>
                <mxCell id="_ZwvrWTYbWZkt-ZXVWBP-319" value="1" style="rounded=0;whiteSpace=wrap;html=1;fillColor=none;strokeWidth=40;strokeColor=#FF0000;" parent="1" vertex="1">
                    <mxGeometry x="501" y="2140" width="160" height="160" as="geometry"/>
                </mxCell>
                <mxCell id="_ZwvrWTYbWZkt-ZXVWBP-320" value="2" style="rounded=0;whiteSpace=wrap;html=1;fillColor=none;strokeWidth=40;strokeColor=#FF0000;" parent="1" vertex="1">
                    <mxGeometry x="501" y="1975" width="160" height="160" as="geometry"/>
                </mxCell>
                <mxCell id="_ZwvrWTYbWZkt-ZXVWBP-321" value="&lt;h1 style=&quot;margin-top: 0px;&quot;&gt;8&lt;/h1&gt;&lt;p&gt;&lt;span style=&quot;background-color: initial;&quot;&gt;x,y,5,5 *&lt;br&gt;&lt;/span&gt;&lt;span style=&quot;background-color: initial;&quot;&gt;x,y+4,5,5 *&lt;/span&gt;&lt;br&gt;&lt;/p&gt;" style="text;html=1;whiteSpace=wrap;overflow=hidden;rounded=0;" parent="1" vertex="1">
                    <mxGeometry x="480" y="2360" width="180" height="120" as="geometry"/>
                </mxCell>
                <mxCell id="_ZwvrWTYbWZkt-ZXVWBP-322" value="" style="endArrow=classic;html=1;rounded=0;" parent="1" edge="1">
                    <mxGeometry width="50" height="50" relative="1" as="geometry">
                        <mxPoint x="120" y="2880" as="sourcePoint"/>
                        <mxPoint x="120" y="2480" as="targetPoint"/>
                    </mxGeometry>
                </mxCell>
                <mxCell id="_ZwvrWTYbWZkt-ZXVWBP-323" value="" style="endArrow=classic;html=1;rounded=0;exitX=0;exitY=1;exitDx=0;exitDy=0;" parent="1" edge="1">
                    <mxGeometry width="50" height="50" relative="1" as="geometry">
                        <mxPoint x="120" y="2880" as="sourcePoint"/>
                        <mxPoint x="360" y="2880" as="targetPoint"/>
                    </mxGeometry>
                </mxCell>
                <mxCell id="_ZwvrWTYbWZkt-ZXVWBP-324" value="1" style="text;html=1;align=center;verticalAlign=middle;whiteSpace=wrap;rounded=0;" parent="1" vertex="1">
                    <mxGeometry x="130" y="2880" width="60" height="30" as="geometry"/>
                </mxCell>
                <mxCell id="_ZwvrWTYbWZkt-ZXVWBP-325" value="2" style="text;html=1;align=center;verticalAlign=middle;whiteSpace=wrap;rounded=0;" parent="1" vertex="1">
                    <mxGeometry x="170" y="2880" width="60" height="30" as="geometry"/>
                </mxCell>
                <mxCell id="_ZwvrWTYbWZkt-ZXVWBP-326" value="4" style="text;html=1;align=center;verticalAlign=middle;whiteSpace=wrap;rounded=0;" parent="1" vertex="1">
                    <mxGeometry x="250" y="2880" width="60" height="30" as="geometry"/>
                </mxCell>
                <mxCell id="_ZwvrWTYbWZkt-ZXVWBP-327" value="3" style="text;html=1;align=center;verticalAlign=middle;whiteSpace=wrap;rounded=0;" parent="1" vertex="1">
                    <mxGeometry x="210" y="2880" width="60" height="30" as="geometry"/>
                </mxCell>
                <mxCell id="_ZwvrWTYbWZkt-ZXVWBP-328" value="5" style="text;html=1;align=center;verticalAlign=middle;whiteSpace=wrap;rounded=0;" parent="1" vertex="1">
                    <mxGeometry x="290" y="2880" width="60" height="30" as="geometry"/>
                </mxCell>
                <mxCell id="_ZwvrWTYbWZkt-ZXVWBP-329" value="1" style="rounded=0;whiteSpace=wrap;html=1;fillStyle=auto;fillColor=#e51400;strokeColor=#B20000;fontColor=#ffffff;" parent="1" vertex="1">
                    <mxGeometry x="120" y="2840" width="200" height="40" as="geometry"/>
                </mxCell>
                <mxCell id="_ZwvrWTYbWZkt-ZXVWBP-330" value="2" style="rounded=0;whiteSpace=wrap;html=1;fillStyle=auto;fillColor=#e51400;strokeColor=#B20000;fontColor=#ffffff;" parent="1" vertex="1">
                    <mxGeometry x="280" y="2720" width="40" height="120" as="geometry"/>
                </mxCell>
                <mxCell id="_ZwvrWTYbWZkt-ZXVWBP-331" value="&lt;h1 style=&quot;margin-top: 0px;&quot;&gt;9&lt;/h1&gt;&lt;p&gt;&lt;span style=&quot;background-color: initial;&quot;&gt;x,y,5,1&lt;br&gt;&lt;/span&gt;&lt;span style=&quot;background-color: initial;&quot;&gt;x+4,y+1,1,3&lt;br&gt;&lt;/span&gt;&lt;span style=&quot;background-color: initial;&quot;&gt;x,y+4,5,5 *&lt;/span&gt;&lt;/p&gt;&lt;p&gt;&lt;br&gt;&lt;/p&gt;" style="text;html=1;whiteSpace=wrap;overflow=hidden;rounded=0;" parent="1" vertex="1">
                    <mxGeometry x="120" y="2920" width="180" height="120" as="geometry"/>
                </mxCell>
                <mxCell id="_ZwvrWTYbWZkt-ZXVWBP-332" value="1" style="text;html=1;align=center;verticalAlign=middle;whiteSpace=wrap;rounded=0;" parent="1" vertex="1">
                    <mxGeometry x="70" y="2825" width="60" height="30" as="geometry"/>
                </mxCell>
                <mxCell id="_ZwvrWTYbWZkt-ZXVWBP-333" value="2" style="text;html=1;align=center;verticalAlign=middle;whiteSpace=wrap;rounded=0;" parent="1" vertex="1">
                    <mxGeometry x="70" y="2785" width="60" height="30" as="geometry"/>
                </mxCell>
                <mxCell id="_ZwvrWTYbWZkt-ZXVWBP-334" value="3" style="text;html=1;align=center;verticalAlign=middle;whiteSpace=wrap;rounded=0;" parent="1" vertex="1">
                    <mxGeometry x="70" y="2745" width="60" height="30" as="geometry"/>
                </mxCell>
                <mxCell id="_ZwvrWTYbWZkt-ZXVWBP-335" value="4" style="text;html=1;align=center;verticalAlign=middle;whiteSpace=wrap;rounded=0;" parent="1" vertex="1">
                    <mxGeometry x="70" y="2705" width="60" height="30" as="geometry"/>
                </mxCell>
                <mxCell id="_ZwvrWTYbWZkt-ZXVWBP-336" value="5" style="text;html=1;align=center;verticalAlign=middle;whiteSpace=wrap;rounded=0;" parent="1" vertex="1">
                    <mxGeometry x="70" y="2665" width="60" height="30" as="geometry"/>
                </mxCell>
                <mxCell id="_ZwvrWTYbWZkt-ZXVWBP-337" value="6" style="text;html=1;align=center;verticalAlign=middle;whiteSpace=wrap;rounded=0;" parent="1" vertex="1">
                    <mxGeometry x="70" y="2625" width="60" height="30" as="geometry"/>
                </mxCell>
                <mxCell id="_ZwvrWTYbWZkt-ZXVWBP-338" value="7" style="text;html=1;align=center;verticalAlign=middle;whiteSpace=wrap;rounded=0;" parent="1" vertex="1">
                    <mxGeometry x="70" y="2585" width="60" height="30" as="geometry"/>
                </mxCell>
                <mxCell id="_ZwvrWTYbWZkt-ZXVWBP-339" value="8" style="text;html=1;align=center;verticalAlign=middle;whiteSpace=wrap;rounded=0;" parent="1" vertex="1">
                    <mxGeometry x="70" y="2545" width="60" height="30" as="geometry"/>
                </mxCell>
                <mxCell id="_ZwvrWTYbWZkt-ZXVWBP-340" value="9" style="text;html=1;align=center;verticalAlign=middle;whiteSpace=wrap;rounded=0;" parent="1" vertex="1">
                    <mxGeometry x="70" y="2505" width="60" height="30" as="geometry"/>
                </mxCell>
                <mxCell id="_ZwvrWTYbWZkt-ZXVWBP-341" value="3" style="rounded=0;whiteSpace=wrap;html=1;fillColor=none;strokeWidth=40;strokeColor=#FF0000;" parent="1" vertex="1">
                    <mxGeometry x="141" y="2540" width="160" height="160" as="geometry"/>
                </mxCell>
                <mxCell id="_ZwvrWTYbWZkt-ZXVWBP-342" value="" style="endArrow=classic;html=1;rounded=0;" parent="1" edge="1">
                    <mxGeometry width="50" height="50" relative="1" as="geometry">
                        <mxPoint x="480" y="2880" as="sourcePoint"/>
                        <mxPoint x="480" y="2480" as="targetPoint"/>
                    </mxGeometry>
                </mxCell>
                <mxCell id="_ZwvrWTYbWZkt-ZXVWBP-343" value="" style="endArrow=classic;html=1;rounded=0;exitX=0;exitY=1;exitDx=0;exitDy=0;" parent="1" edge="1">
                    <mxGeometry width="50" height="50" relative="1" as="geometry">
                        <mxPoint x="480" y="2880" as="sourcePoint"/>
                        <mxPoint x="720" y="2880" as="targetPoint"/>
                    </mxGeometry>
                </mxCell>
                <mxCell id="_ZwvrWTYbWZkt-ZXVWBP-344" value="1" style="text;html=1;align=center;verticalAlign=middle;whiteSpace=wrap;rounded=0;" parent="1" vertex="1">
                    <mxGeometry x="490" y="2880" width="60" height="30" as="geometry"/>
                </mxCell>
                <mxCell id="_ZwvrWTYbWZkt-ZXVWBP-345" value="2" style="text;html=1;align=center;verticalAlign=middle;whiteSpace=wrap;rounded=0;" parent="1" vertex="1">
                    <mxGeometry x="530" y="2880" width="60" height="30" as="geometry"/>
                </mxCell>
                <mxCell id="_ZwvrWTYbWZkt-ZXVWBP-346" value="4" style="text;html=1;align=center;verticalAlign=middle;whiteSpace=wrap;rounded=0;" parent="1" vertex="1">
                    <mxGeometry x="610" y="2880" width="60" height="30" as="geometry"/>
                </mxCell>
                <mxCell id="_ZwvrWTYbWZkt-ZXVWBP-347" value="3" style="text;html=1;align=center;verticalAlign=middle;whiteSpace=wrap;rounded=0;" parent="1" vertex="1">
                    <mxGeometry x="570" y="2880" width="60" height="30" as="geometry"/>
                </mxCell>
                <mxCell id="_ZwvrWTYbWZkt-ZXVWBP-348" value="5" style="text;html=1;align=center;verticalAlign=middle;whiteSpace=wrap;rounded=0;" parent="1" vertex="1">
                    <mxGeometry x="650" y="2880" width="60" height="30" as="geometry"/>
                </mxCell>
                <mxCell id="_ZwvrWTYbWZkt-ZXVWBP-349" value="1" style="text;html=1;align=center;verticalAlign=middle;whiteSpace=wrap;rounded=0;" parent="1" vertex="1">
                    <mxGeometry x="430" y="2825" width="60" height="30" as="geometry"/>
                </mxCell>
                <mxCell id="_ZwvrWTYbWZkt-ZXVWBP-350" value="2" style="text;html=1;align=center;verticalAlign=middle;whiteSpace=wrap;rounded=0;" parent="1" vertex="1">
                    <mxGeometry x="430" y="2785" width="60" height="30" as="geometry"/>
                </mxCell>
                <mxCell id="_ZwvrWTYbWZkt-ZXVWBP-351" value="3" style="text;html=1;align=center;verticalAlign=middle;whiteSpace=wrap;rounded=0;" parent="1" vertex="1">
                    <mxGeometry x="430" y="2745" width="60" height="30" as="geometry"/>
                </mxCell>
                <mxCell id="_ZwvrWTYbWZkt-ZXVWBP-352" value="4" style="text;html=1;align=center;verticalAlign=middle;whiteSpace=wrap;rounded=0;" parent="1" vertex="1">
                    <mxGeometry x="430" y="2705" width="60" height="30" as="geometry"/>
                </mxCell>
                <mxCell id="_ZwvrWTYbWZkt-ZXVWBP-353" value="5" style="text;html=1;align=center;verticalAlign=middle;whiteSpace=wrap;rounded=0;" parent="1" vertex="1">
                    <mxGeometry x="430" y="2665" width="60" height="30" as="geometry"/>
                </mxCell>
                <mxCell id="_ZwvrWTYbWZkt-ZXVWBP-354" value="6" style="text;html=1;align=center;verticalAlign=middle;whiteSpace=wrap;rounded=0;" parent="1" vertex="1">
                    <mxGeometry x="430" y="2625" width="60" height="30" as="geometry"/>
                </mxCell>
                <mxCell id="_ZwvrWTYbWZkt-ZXVWBP-355" value="7" style="text;html=1;align=center;verticalAlign=middle;whiteSpace=wrap;rounded=0;" parent="1" vertex="1">
                    <mxGeometry x="430" y="2585" width="60" height="30" as="geometry"/>
                </mxCell>
                <mxCell id="_ZwvrWTYbWZkt-ZXVWBP-356" value="8" style="text;html=1;align=center;verticalAlign=middle;whiteSpace=wrap;rounded=0;" parent="1" vertex="1">
                    <mxGeometry x="430" y="2545" width="60" height="30" as="geometry"/>
                </mxCell>
                <mxCell id="_ZwvrWTYbWZkt-ZXVWBP-357" value="9" style="text;html=1;align=center;verticalAlign=middle;whiteSpace=wrap;rounded=0;" parent="1" vertex="1">
                    <mxGeometry x="430" y="2505" width="60" height="30" as="geometry"/>
                </mxCell>
                <mxCell id="_ZwvrWTYbWZkt-ZXVWBP-358" value="1" style="rounded=0;whiteSpace=wrap;html=1;fillColor=none;strokeWidth=40;strokeColor=#FF0000;" parent="1" vertex="1">
                    <mxGeometry x="501" y="2540" width="160" height="320" as="geometry"/>
                </mxCell>
                <mxCell id="_ZwvrWTYbWZkt-ZXVWBP-360" value="&lt;h1 style=&quot;margin-top: 0px;&quot;&gt;0&lt;/h1&gt;&lt;p&gt;&lt;span style=&quot;background-color: initial;&quot;&gt;x,y,5,9 *&lt;/span&gt;&lt;br&gt;&lt;/p&gt;" style="text;html=1;whiteSpace=wrap;overflow=hidden;rounded=0;" parent="1" vertex="1">
                    <mxGeometry x="480" y="2920" width="180" height="120" as="geometry"/>
                </mxCell>
                <mxCell id="_ZwvrWTYbWZkt-ZXVWBP-361" value="3" style="rounded=0;whiteSpace=wrap;html=1;fillStyle=auto;fillColor=#e51400;strokeColor=#B20000;fontColor=#ffffff;" parent="1" vertex="1">
                    <mxGeometry x="160" y="120" width="40" height="40" as="geometry"/>
                </mxCell>
                <mxCell id="_ZwvrWTYbWZkt-ZXVWBP-362" value="1" style="rounded=0;whiteSpace=wrap;html=1;fillStyle=auto;fillColor=#e51400;strokeColor=#B20000;fontColor=#ffffff;" parent="1" vertex="1">
                    <mxGeometry x="160" y="400" width="120" height="40" as="geometry"/>
                </mxCell>
            </root>
        </mxGraphModel>
    </diagram>
</mxfile>